<svg id="visual" viewBox="0 0 1200 240" width="1200" height="240" xmlns="http://www.w3.org/2000/svg" xmlns:xlink="http://www.w3.org/1999/xlink" version="1.1"><path d="M0 157L200 143L400 154L600 139L800 184L1000 181L1200 145L1200 0L1000 0L800 0L600 0L400 0L200 0L0 0Z" fill="#646cff"></path><path d="M0 128L200 89L400 98L600 121L800 105L1000 87L1200 119L1200 0L1000 0L800 0L600 0L400 0L200 0L0 0Z" fill="#9a72ff"></path><path d="M0 48L200 56L400 75L600 49L800 68L1000 50L1200 56L1200 0L1000 0L800 0L600 0L400 0L200 0L0 0Z" fill="#c27aff"></path></svg>